<?xml version="1.0" standalone="no"?><!DOCTYPE svg PUBLIC "-//W3C//DTD SVG 1.1//EN" "http://www.w3.org/Graphics/SVG/1.1/DTD/svg11.dtd"><svg t="1660371087031" class="icon" viewBox="0 0 1024 1024" version="1.1" xmlns="http://www.w3.org/2000/svg" p-id="8545" xmlns:xlink="http://www.w3.org/1999/xlink" width="200" height="200"><defs><style type="text/css">@font-face { font-family: "feedback-iconfont"; src: url("//at.alicdn.com/t/font_1031158_u69w8yhxdu.woff2?t=1630033759944") format("woff2"), url("//at.alicdn.com/t/font_1031158_u69w8yhxdu.woff?t=1630033759944") format("woff"), url("//at.alicdn.com/t/font_1031158_u69w8yhxdu.ttf?t=1630033759944") format("truetype"); }
</style></defs><path d="M732 92c19.683 0 35.677 15.797 35.995 35.405L768 128v768c0 19.683-15.797 35.677-35.405 35.995L732 932H154c-19.683 0-35.677-15.797-35.995-35.405L118 896V128c0-19.683 15.797-35.677 35.405-35.995L154 92h578z m132.5 0c19.683 0 35.677 15.797 35.995 35.405l0.005 0.595v768c0 19.882-16.118 36-36 36-19.683 0-35.677-15.797-35.995-35.405L828.5 896V128c0-19.882 16.118-36 36-36zM451.003 518C368.712 518 260 575.472 260 646.37c0 70.9 97.383 80.63 190.997 80.63C544.61 727 644 717.269 644 646.37 644 575.474 533.293 518 451.003 518z m1.494-220C395.34 298 349 344.34 349 401.5c0 57.163 46.339 103.5 103.497 103.5C509.66 505 556 458.66 556 401.5c0-57.163-46.339-103.5-103.503-103.5z" p-id="8546"></path></svg>