<?xml version="1.0" standalone="no"?><!DOCTYPE svg PUBLIC "-//W3C//DTD SVG 1.1//EN" "http://www.w3.org/Graphics/SVG/1.1/DTD/svg11.dtd"><svg t="1660371114169" class="icon" viewBox="0 0 1024 1024" version="1.1" xmlns="http://www.w3.org/2000/svg" p-id="8683" xmlns:xlink="http://www.w3.org/1999/xlink" width="200" height="200"><defs><style type="text/css">@font-face { font-family: "feedback-iconfont"; src: url("//at.alicdn.com/t/font_1031158_u69w8yhxdu.woff2?t=1630033759944") format("woff2"), url("//at.alicdn.com/t/font_1031158_u69w8yhxdu.woff?t=1630033759944") format("woff"), url("//at.alicdn.com/t/font_1031158_u69w8yhxdu.ttf?t=1630033759944") format("truetype"); }
</style></defs><path d="M365.607 515.537C303.424 470.361 263 397.147 263 314.5 263 177.238 374.5 66 512 66s249 111.238 249 248.5c0 82.787-40.56 156.108-102.922 201.266 171.979 57.517 299.622 213.512 313.82 402.537C973.469 939.19 956.946 957 936 957H87c-20.945 0-37.468-17.81-35.899-38.697C65.32 729.027 193.282 572.87 365.607 515.537zM127.757 885h767.487C862.848 701.756 702.493 564 511.5 564c-190.993 0-351.348 137.756-383.744 321zM512 491c97.773 0 177-79.04 177-176.5S609.773 138 512 138s-177 79.04-177 176.5S414.227 491 512 491z m0.412 111l53.924 175.179-54.631 54.63-54.296-54.295L512.412 602z" p-id="8684"></path></svg>